<svg viewBox="0 0 20 20" fill="var(--theme-color)" xmlns="http://www.w3.org/2000/svg">
<path fill-rule="evenodd" clip-rule="evenodd" d="M2.75 9.08333C2.75 5.58553 5.58553 2.75 9.08333 2.75C12.5811 2.75 15.4167 5.58553 15.4167 9.08333C15.4167 10.7878 14.7434 12.3349 13.6483 13.4734C13.6161 13.4985 13.5852 13.5258 13.5556 13.5554C13.526 13.585 13.4987 13.6159 13.4736 13.6481C12.3351 14.7433 10.7878 15.4167 9.08333 15.4167C5.58553 15.4167 2.75 12.5811 2.75 9.08333ZM14.2266 15.6406C12.8101 16.7532 11.0242 17.4167 9.08333 17.4167C4.48096 17.4167 0.75 13.6857 0.75 9.08333C0.75 4.48096 4.48096 0.75 9.08333 0.75C13.6857 0.75 17.4167 4.48096 17.4167 9.08333C17.4167 11.0241 16.7532 12.8099 15.6408 14.2263L18.9573 17.5429C19.3478 17.9334 19.3478 18.5666 18.9573 18.9571C18.5668 19.3476 17.9336 19.3476 17.5431 18.9571L14.2266 15.6406Z" />
</svg>
